<svg width="482" height="532" viewBox="0 0 482 532" fill="none" xmlns="http://www.w3.org/2000/svg">
<path d="M386.4 532C360.267 532 339.267 526.633 323.4 515.9C308 504.7 296.1 491.4 287.7 476C279.767 460.133 271.133 438.433 261.8 410.9C252.467 382.433 243.367 360.033 234.5 343.7C226.1 326.9 213.267 312.667 196 301C179.2 289.333 156.333 283.5 127.4 283.5V277.2C187.133 277.2 230.067 266.7 256.2 245.7C282.333 224.7 295.4 193.9 295.4 153.3C295.4 112.7 283.733 78.1666 260.4 49.7C237.533 21.2333 200.433 6.99999 149.1 6.99999C135.1 6.99999 120.633 8.86664 105.7 12.6L105 476C105 484.867 109.2 491.867 117.6 497C126 502.133 136.5 504.7 149.1 504.7C158.433 504.7 167.533 503.3 176.4 500.5V518H1.98185e-06V500.5C8.86667 503.3 17.0333 504.7 24.5 504.7C33.3667 504.7 40.1333 502.367 44.8 497.7C49.9333 492.567 52.5 485.333 52.5 476V42C52.5 32.6666 49.9333 25.6666 44.8 21C40.1333 15.8667 33.3667 13.3 24.5 13.3C17.0333 13.3 8.86667 14.7 1.98185e-06 17.5V-6.67572e-06H179.9C229.833 -6.67572e-06 271.367 12.1333 304.5 36.4C337.633 60.6666 354.2 98.2333 354.2 149.1C354.2 181.767 342.067 209.067 317.8 231C294 252.933 263.433 268.1 226.1 276.5C239.167 276.967 250.6 282.333 260.4 292.6C270.667 302.867 279.533 315.7 287 331.1C294.467 346.033 303.1 365.867 312.9 390.6C323.633 417.667 332.967 439.367 340.9 455.7C348.833 472.033 358.633 485.8 370.3 497C381.967 508.2 395.733 513.8 411.6 513.8C424.2 513.8 436.333 508.433 448 497.7C460.133 486.5 469.467 475.067 476 463.4L481.6 472.5C469 493.5 455.467 508.667 441 518C427 527.333 408.8 532 386.4 532Z" fill="#040404"/>
</svg>
