<svg width="665" height="304" viewBox="0 0 665 304" fill="none" xmlns="http://www.w3.org/2000/svg">
<path d="M316.909 166.182L291.091 236H280.182L254.364 166.182H266L285.273 221.818H286L305.273 166.182H316.909ZM416.721 237.455C409.994 237.455 404.191 235.97 399.312 233C394.463 230 390.721 225.818 388.085 220.455C385.478 215.061 384.175 208.788 384.175 201.636C384.175 194.485 385.478 188.182 388.085 182.727C390.721 177.242 394.388 172.97 399.085 169.909C403.812 166.818 409.327 165.273 415.63 165.273C419.266 165.273 422.857 165.879 426.403 167.091C429.948 168.303 433.175 170.273 436.085 173C438.994 175.697 441.312 179.273 443.039 183.727C444.766 188.182 445.63 193.667 445.63 200.182V204.727H391.812V195.455H434.721C434.721 191.515 433.933 188 432.357 184.909C430.812 181.818 428.6 179.379 425.721 177.591C422.872 175.803 419.509 174.909 415.63 174.909C411.357 174.909 407.66 175.97 404.539 178.091C401.448 180.182 399.069 182.909 397.403 186.273C395.736 189.636 394.903 193.242 394.903 197.091V203.273C394.903 208.545 395.812 213.015 397.63 216.682C399.478 220.318 402.039 223.091 405.312 225C408.585 226.879 412.388 227.818 416.721 227.818C419.539 227.818 422.085 227.424 424.357 226.636C426.66 225.818 428.645 224.606 430.312 223C431.978 221.364 433.266 219.333 434.175 216.909L444.539 219.818C443.448 223.333 441.615 226.424 439.039 229.091C436.463 231.727 433.282 233.788 429.494 235.273C425.706 236.727 421.448 237.455 416.721 237.455ZM550.101 237.455C543.374 237.455 537.571 235.97 532.692 233C527.843 230 524.101 225.818 521.465 220.455C518.858 215.061 517.555 208.788 517.555 201.636C517.555 194.485 518.858 188.182 521.465 182.727C524.101 177.242 527.768 172.97 532.465 169.909C537.192 166.818 542.707 165.273 549.01 165.273C552.646 165.273 556.237 165.879 559.783 167.091C563.328 168.303 566.555 170.273 569.465 173C572.374 175.697 574.692 179.273 576.419 183.727C578.146 188.182 579.01 193.667 579.01 200.182V204.727H525.192V195.455H568.101C568.101 191.515 567.313 188 565.737 184.909C564.192 181.818 561.98 179.379 559.101 177.591C556.252 175.803 552.889 174.909 549.01 174.909C544.737 174.909 541.04 175.97 537.919 178.091C534.828 180.182 532.449 182.909 530.783 186.273C529.116 189.636 528.283 193.242 528.283 197.091V203.273C528.283 208.545 529.192 213.015 531.01 216.682C532.858 220.318 535.419 223.091 538.692 225C541.965 226.879 545.768 227.818 550.101 227.818C552.919 227.818 555.465 227.424 557.737 226.636C560.04 225.818 562.025 224.606 563.692 223C565.358 221.364 566.646 219.333 567.555 216.909L577.919 219.818C576.828 223.333 574.995 226.424 572.419 229.091C569.843 231.727 566.662 233.788 562.874 235.273C559.086 236.727 554.828 237.455 550.101 237.455ZM664.935 142.909V236H654.208V142.909H664.935Z" fill="#080707"/>
<path d="M220.8 304C205.867 304 193.867 300.933 184.8 294.8C176 288.4 169.2 280.8 164.4 272C159.867 262.933 154.933 250.533 149.6 234.8C144.267 218.533 139.067 205.733 134 196.4C129.2 186.8 121.867 178.667 112 172C102.4 165.333 89.3333 162 72.8 162V158.4C106.933 158.4 131.467 152.4 146.4 140.4C161.333 128.4 168.8 110.8 168.8 87.6C168.8 64.4 162.133 44.6667 148.8 28.4C135.733 12.1333 114.533 3.99999 85.2 3.99999C77.2 3.99999 68.9333 5.06665 60.4 7.19998L60 272C60 277.067 62.4 281.067 67.2 284C72 286.933 78 288.4 85.2 288.4C90.5333 288.4 95.7333 287.6 100.8 286V296H1.13249e-06V286C5.06667 287.6 9.73333 288.4 14 288.4C19.0667 288.4 22.9333 287.067 25.6 284.4C28.5333 281.467 30 277.333 30 272V24C30 18.6667 28.5333 14.6666 25.6 12C22.9333 9.06666 19.0667 7.59999 14 7.59999C9.73333 7.59999 5.06667 8.39999 1.13249e-06 9.99999V-3.8147e-06H102.8C131.333 -3.8147e-06 155.067 6.93333 174 20.8C192.933 34.6667 202.4 56.1333 202.4 85.2C202.4 103.867 195.467 119.467 181.6 132C168 144.533 150.533 153.2 129.2 158C136.667 158.267 143.2 161.333 148.8 167.2C154.667 173.067 159.733 180.4 164 189.2C168.267 197.733 173.2 209.067 178.8 223.2C184.933 238.667 190.267 251.067 194.8 260.4C199.333 269.733 204.933 277.6 211.6 284C218.267 290.4 226.133 293.6 235.2 293.6C242.4 293.6 249.333 290.533 256 284.4C262.933 278 268.267 271.467 272 264.8L275.2 270C268 282 260.267 290.667 252 296C244 301.333 233.6 304 220.8 304Z" fill="#040404"/>
</svg>
